<?xml version="1.0" encoding="UTF-8"?>
<!DOCTYPE svg PUBLIC "-//W3C//DTD SVG 1.1//EN" "http://www.w3.org/Graphics/SVG/1.1/DTD/svg11.dtd">
<!-- Creator: CorelDRAW X7 -->
<svg xmlns="http://www.w3.org/2000/svg" xml:space="preserve" width="659.606mm" height="267.494mm" version="1.1" style="shape-rendering:geometricPrecision; text-rendering:geometricPrecision; image-rendering:optimizeQuality; fill-rule:evenodd; clip-rule:evenodd"
viewBox="0 0 65961 26749"
 xmlns:xlink="http://www.w3.org/1999/xlink">
 <defs>
  <style type="text/css">
   <![CDATA[
    .str2 {stroke:#09F999;stroke-width:238.13}
    .str1 {stroke:#09F999;stroke-width:211.67}
    .str0 {stroke:#154913;stroke-width:211.67}
    .str3 {stroke:#EDD45C;stroke-width:211.67}
    .str5 {stroke:#154913;stroke-width:222.25}
    .str4 {stroke:#154913;stroke-width:211.67;stroke-linecap:square}
    .fil2 {fill:none}
    .fil1 {fill:#09F999}
    .fil3 {fill:#154913}
    .fil5 {fill:#2E5824}
    .fil4 {fill:#76DDE8}
    .fil7 {fill:#FDFDFD}
    .fil0 {fill:white}
    .fil6 {fill:#508246;fill-opacity:0.541176}
   ]]>
  </style>
 </defs>
 <g id="Layer_x0020_1">
  <metadata id="CorelCorpID_0Corel-Layer"/>
  <path id="Case" class="fil0 str0" d="M39317 3334l-25770 0c-205,0 -390,83 -524,217 -134,134 -217,319 -217,523l0 17648c0,205 83,390 217,524 134,134 319,217 524,217l25770 0c205,0 390,-83 524,-217 134,-134 217,-319 217,-524l0 -17648c0,-204 -83,-389 -217,-523 -134,-134 -319,-217 -524,-217z"/>
  <path id="Case_0" class="fil1 str1" d="M38047 4974l-23257 0c-88,0 -167,36 -224,93 -58,58 -93,137 -93,225l0 13149c0,88 35,167 93,225 57,57 136,93 224,93l23257 0c88,0 167,-36 225,-93 57,-58 93,-137 93,-225l0 -13149c0,-88 -36,-167 -93,-225 -58,-57 -137,-93 -225,-93z"/>
  <polygon id="Case_1" class="fil0 str0" points="28399,22463 24491,22463 24227,25876 28663,25876 "/>
  <path id="Keyboard" class="fil0 str0" d="M30268 26644l-7646 0c-7,0 -14,-3 -19,-8 -5,-5 -8,-12 -8,-19l0 -357c0,-106 43,-202 113,-271 69,-70 165,-113 271,-113l6932 0c106,0 202,43 271,113 70,69 113,165 113,271l0 357c0,7 -3,14 -8,19 -5,5 -11,8 -19,8z"/>
  <circle id="Oval-6" class="fil2 str0" cx="26445" cy="20757" r="489"/>
  <path class="fil0 str0" d="M10927 16351l3969 0c351,0 635,285 635,635l0 9023c0,350 -284,635 -635,635l-3969 0c-350,0 -635,-285 -635,-635l0 -9023c0,-350 285,-635 635,-635z"/>
  <polygon id="Case_2" class="fil3 str0" points="15531,17515 10292,17515 10292,25117 15531,25117 "/>
  <path class="fil3" d="M11774 16827l2302 0c58,0 106,48 106,106l0 0c0,59 -48,106 -106,106l-2302 0c-58,0 -106,-47 -106,-106l0 0c0,-58 48,-106 106,-106z"/>
  <path class="fil3" d="M12922 25559l0 0c167,0 302,135 302,301l0 0c0,167 -135,302 -302,302l0 0c-166,0 -301,-135 -301,-302l0 0c0,-166 135,-301 301,-301z"/>
  <circle id="Oval-6_3" class="fil1 str1" cx="11774" cy="21299" r="397"/>
  <path class="fil0" d="M12806 20611l1640 0c59,0 106,47 106,106l0 0c0,58 -47,106 -106,106l-1640 0c-59,0 -106,-48 -106,-106l0 0c0,-59 47,-106 106,-106z"/>
  <path class="fil0" d="M12806 21193l1111 0c59,0 106,48 106,106l0 0c0,58 -47,106 -106,106l-1111 0c-59,0 -106,-48 -106,-106l0 0c0,-58 47,-106 106,-106z"/>
  <path class="fil0" d="M12806 21775l582 0c58,0 106,48 106,106l0 0c0,58 -48,106 -106,106l-582 0c-59,0 -106,-48 -106,-106l0 0c0,-58 47,-106 106,-106z"/>
  <circle id="Oval-7" class="fil4 str0" cx="7607" cy="17291" r="4061"/>
  <path id="Case_4" class="fil0 str0" d="M51329 12383l-18098 0c-204,0 -389,82 -523,216 -134,135 -217,320 -217,524l0 11668c0,205 83,390 217,524 134,134 319,217 523,217l18098 0c205,0 390,-83 524,-217 134,-134 217,-319 217,-524l0 -11668c0,-204 -83,-389 -217,-523 -134,-135 -319,-217 -524,-217z"/>
  <path id="Keyboard_5" class="fil0 str0" d="M53393 25532l-22225 0c-8,0 -14,3 -19,8 -5,5 -8,11 -8,19l0 529c0,153 63,292 163,393 101,100 240,163 393,163l21167 0c153,0 292,-63 393,-163 100,-101 162,-240 162,-393l0 -529c0,-8 -3,-14 -7,-19 -5,-5 -12,-8 -19,-8z"/>
  <path id="Notch" class="fil0 str0" d="M43743 25544l-2963 0c52,136 139,255 249,345 141,115 322,184 518,184l1429 0c197,0 377,-69 518,-184 111,-90 198,-209 249,-345z"/>
  <path class="fil4" d="M33470 13520l17605 0c117,0 212,95 212,212l0 10473c0,117 -95,212 -212,212l-17605 0c-117,0 -212,-95 -212,-212l0 -10473c0,-117 95,-212 212,-212z"/>
  <circle id="Oval-3" class="fil5" cx="25850" cy="5212" r="132"/>
  <path id="Case_6" class="fil3 str0" d="M30295 1561l-11801 0 0 11509c0,147 60,279 155,375 96,95 229,155 375,155l10741 0c147,0 279,-60 375,-155 96,-96 155,-228 155,-375l0 -11509z"/>
  <path id="Case_7" class="fil0 str0" d="M29765 106l-10741 0c-146,0 -279,59 -375,155 -95,96 -155,228 -155,374l0 714 11801 0 0 -714c0,-146 -59,-278 -155,-374 -96,-96 -228,-155 -375,-155z"/>
  <circle id="Oval-5" class="fil3" cx="19420" cy="741" r="238"/>
  <circle id="Oval-5_8" class="fil1" cx="20214" cy="741" r="238"/>
  <circle id="Oval-5_9" class="fil4" cx="21008" cy="741" r="238"/>
  <path class="fil6" d="M19870 9075l265 0c58,0 106,48 106,106l0 0c0,58 -48,106 -106,106l-265 0c-58,0 -106,-48 -106,-106l0 0c0,-58 48,-106 106,-106z"/>
  <path class="fil6" d="M19870 3784l265 0c58,0 106,47 106,105l0 0c0,59 -48,106 -106,106l-265 0c-58,0 -106,-47 -106,-106l0 0c0,-58 48,-105 106,-105z"/>
  <path id="Rectangle-11" class="fil1" d="M20664 3784l714 0c59,0 106,47 106,105 0,59 -47,106 -106,106l-714 0c-58,0 -106,-47 -106,-106 0,-58 48,-105 106,-105z"/>
  <path id="Rectangle-11_10" class="fil4" d="M21855 3784l714 0c58,0 106,47 106,105 0,59 -48,106 -106,106l-714 0c-59,0 -106,-47 -106,-106 0,-58 47,-105 106,-105z"/>
  <path id="Rectangle-11_11" class="fil1" d="M23045 3784l1323 0c59,0 106,47 106,105 0,59 -47,106 -106,106l-1323 0c-58,0 -106,-47 -106,-106 0,-58 48,-105 106,-105z"/>
  <path id="Rectangle-11_12" class="fil1" d="M24844 3784l1958 0c59,0 106,47 106,105 0,59 -47,106 -106,106l-1958 0c-58,0 -105,-47 -105,-106 0,-58 47,-105 105,-105z"/>
  <path class="fil6" d="M19870 4842l265 0c58,0 106,47 106,106l0 0c0,58 -48,106 -106,106l-265 0c-58,0 -106,-48 -106,-106l0 0c0,-59 48,-106 106,-106z"/>
  <path class="fil6" d="M19870 5900l265 0c58,0 106,48 106,106l0 0c0,58 -48,106 -106,106l-265 0c-58,0 -106,-48 -106,-106l0 0c0,-58 48,-106 106,-106z"/>
  <path class="fil6" d="M19870 6959l265 0c58,0 106,47 106,105l0 0c0,59 -48,106 -106,106l-265 0c-58,0 -106,-47 -106,-106l0 0c0,-58 48,-105 106,-105z"/>
  <path class="fil6" d="M19870 8017l265 0c58,0 106,47 106,106l0 0c0,58 -48,106 -106,106l-265 0c-58,0 -106,-48 -106,-106l0 0c0,-59 48,-106 106,-106z"/>
  <path class="fil6" d="M19870 10134l265 0c58,0 106,47 106,105l0 0c0,59 -48,106 -106,106l-265 0c-58,0 -106,-47 -106,-106l0 0c0,-58 48,-105 106,-105z"/>
  <path class="fil6" d="M19870 11192l265 0c58,0 106,47 106,106l0 0c0,58 -48,106 -106,106l-265 0c-58,0 -106,-48 -106,-106l0 0c0,-59 48,-106 106,-106z"/>
  <path class="fil1" d="M20664 4842l1640 0c59,0 106,47 106,106l0 0c0,58 -47,106 -106,106l-1640 0c-58,0 -106,-48 -106,-106l0 0c0,-59 48,-106 106,-106z"/>
  <path class="fil4" d="M22781 4842l2963 0c58,0 106,47 106,106l0 0c0,58 -48,106 -106,106l-2963 0c-59,0 -106,-48 -106,-106l0 0c0,-59 47,-106 106,-106z"/>
  <path class="fil1" d="M26220 4842l1111 0c59,0 106,47 106,106l0 0c0,58 -47,106 -106,106l-1111 0c-58,0 -106,-48 -106,-106l0 0c0,-59 48,-106 106,-106z"/>
  <path class="fil4" d="M20664 5900l1111 0c59,0 106,48 106,106l0 0c0,58 -47,106 -106,106l-1111 0c-58,0 -106,-48 -106,-106l0 0c0,-58 48,-106 106,-106z"/>
  <path class="fil1" d="M22251 5900l1112 0c58,0 106,48 106,106l0 0c0,58 -48,106 -106,106l-1112 0c-58,0 -105,-48 -105,-106l0 0c0,-58 47,-106 105,-106z"/>
  <path class="fil1" d="M23839 5900l582 0c58,0 106,48 106,106l0 0c0,58 -48,106 -106,106l-582 0c-58,0 -106,-48 -106,-106l0 0c0,-58 48,-106 106,-106z"/>
  <path class="fil1" d="M20664 6959l2434 0c59,0 106,47 106,105l0 0c0,59 -47,106 -106,106l-2434 0c-58,0 -106,-47 -106,-106l0 0c0,-58 48,-105 106,-105z"/>
  <path class="fil1" d="M23574 6959l1641 0c58,0 106,47 106,105l0 0c0,59 -48,106 -106,106l-1641 0c-58,0 -105,-47 -105,-106l0 0c0,-58 47,-105 105,-105z"/>
  <path class="fil1" d="M20664 8017l2434 0c59,0 106,47 106,106l0 0c0,58 -47,106 -106,106l-2434 0c-58,0 -106,-48 -106,-106l0 0c0,-59 48,-106 106,-106z"/>
  <path class="fil4" d="M23574 8017l3228 0c59,0 106,47 106,106l0 0c0,58 -47,106 -106,106l-3228 0c-58,0 -105,-48 -105,-106l0 0c0,-59 47,-106 105,-106z"/>
  <path class="fil1" d="M20664 9075l1640 0c59,0 106,48 106,106l0 0c0,58 -47,106 -106,106l-1640 0c-58,0 -106,-48 -106,-106l0 0c0,-58 48,-106 106,-106z"/>
  <path class="fil4" d="M22781 9075l1640 0c58,0 106,48 106,106l0 0c0,58 -48,106 -106,106l-1640 0c-59,0 -106,-48 -106,-106l0 0c0,-58 47,-106 106,-106z"/>
  <path class="fil1" d="M24897 9075l847 0c58,0 106,48 106,106l0 0c0,58 -48,106 -106,106l-847 0c-58,0 -106,-48 -106,-106l0 0c0,-58 48,-106 106,-106z"/>
  <path class="fil1" d="M20664 10134l3228 0c58,0 106,47 106,105l0 0c0,59 -48,106 -106,106l-3228 0c-58,0 -106,-47 -106,-106l0 0c0,-58 48,-105 106,-105z"/>
  <path class="fil4" d="M20664 11192l1376 0c58,0 106,47 106,106l0 0c0,58 -48,106 -106,106l-1376 0c-58,0 -106,-48 -106,-106l0 0c0,-59 48,-106 106,-106z"/>
  <path id="Case_13" class="fil0 str0" d="M56674 9657l-14499 0 0 10319c0,205 83,390 217,524 134,134 319,217 524,217l13017 0c204,0 390,-83 524,-217 134,-134 217,-319 217,-524l0 -10319z"/>
  <path id="Case_14" class="fil3 str0" d="M55933 8334l-13017 0c-205,0 -390,83 -524,217 -135,134 -217,319 -217,524l0 794 14499 0 0 -794c0,-205 -83,-390 -217,-524 -134,-134 -320,-217 -524,-217z"/>
  <circle id="Oval-5_15" class="fil0" cx="43312" cy="9102" r="238"/>
  <circle id="Oval-5_16" class="fil1" cx="44106" cy="9102" r="238"/>
  <circle id="Oval-5_17" class="fil4" cx="44900" cy="9102" r="238"/>
  <circle id="Oval-6_18" class="fil2 str2" cx="51144" cy="15187" r="2646"/>
  <polygon id="Rectangle-12" class="fil7 str3" points="51488,12224 50853,12224 50853,12859 51488,12859 "/>
  <polygon id="Rectangle-12_19" class="fil7 str3" points="51461,17515 50826,17515 50826,18150 51461,18150 "/>
  <polygon id="Rectangle-12_20" class="fil7 str3" points="48816,14896 48181,14896 48181,15531 48816,15531 "/>
  <line id="Line" class="fil2 str4" x1="53790" y1="12806" x2="53790" y2= "14790" />
  <line id="Line_21" class="fil2 str4" x1="53790" y1="15584" x2="53790" y2= "17568" />
  <circle id="Oval-5_22" class="fil3" cx="53790" cy="12726" r="317"/>
  <circle id="Oval-5_23" class="fil3" cx="53790" cy="17754" r="317"/>
  <polygon id="Rectangle-12_24" class="fil7 str3" points="54081,14896 53446,14896 53446,15531 54081,15531 "/>
  <path class="fil3" d="M44979 11880l1217 0c176,0 318,142 318,317l0 1217c0,176 -142,318 -318,318l-1217 0c-175,0 -317,-142 -317,-318l0 -1217c0,-175 142,-317 317,-317z"/>
  <path class="fil4" d="M44979 14261l1217 0c176,0 318,142 318,318l0 1217c0,175 -142,317 -318,317l-1217 0c-175,0 -317,-142 -317,-317l0 -1217c0,-176 142,-318 317,-318z"/>
  <path class="fil1" d="M44979 16642l1217 0c176,0 318,142 318,318l0 1217c0,175 -142,317 -318,317l-1217 0c-175,0 -317,-142 -317,-317l0 -1217c0,-176 142,-318 317,-318z"/>
  <circle id="Oval-8" class="fil0 str0" cx="64267" cy="24104" r="1587"/>
  <circle id="Oval-8_25" class="fil0 str0" cx="64267" cy="24104" r="926"/>
  <circle id="Oval-8_26" class="fil7 str0" cx="62151" cy="21696" r="529"/>
  <path id="Rectangle-16" class="fil0 str0" d="M64318 21564l-4496 0c-29,0 -55,11 -75,31 -19,19 -31,45 -31,74l0 4445c0,146 60,279 155,375 96,95 228,155 375,155l3649 0c146,0 278,-60 374,-155 96,-96 155,-229 155,-375l0 -4445c0,-29 -12,-55 -31,-74 -19,-20 -45,-31 -75,-31z"/>
  <path id="Rectangle-16_27" class="fil4 str0" d="M63130 22992l-953 0c-58,0 -111,24 -150,62 -38,39 -62,92 -62,150l0 1270c0,58 24,111 62,150 39,38 92,62 150,62l953 0c58,0 111,-24 149,-62 39,-39 62,-92 62,-150l0 -1270c0,-58 -23,-111 -62,-150 -38,-38 -91,-62 -149,-62z"/>
  <line id="Line-2" class="fil2 str4" x1="62640" y1="21603" x2="62640" y2= "22807" />
  <path id="Oval-8_28" class="fil0 str5" d="M56700 25194c-429,0 -818,174 -1100,455 -257,257 -424,604 -452,989l3104 0c-27,-385 -195,-732 -452,-989 -281,-281 -670,-455 -1100,-455z"/>
  <path class="fil3" d="M56700 25215l0 0c59,0 106,47 106,106l0 132c0,58 -47,106 -106,106l0 0c-58,0 -106,-48 -106,-106l0 -132c0,-59 48,-106 106,-106z"/>
  <path id="Rectangle-17" class="fil1 str0" d="M8070 23521l-6403 0c-431,0 -821,175 -1104,458 -282,282 -457,672 -457,1104 0,431 175,821 457,1103 283,283 673,458 1104,458l6403 0c44,0 83,-18 112,-47 29,-29 47,-68 47,-112l0 -246c0,-55 -22,-106 -57,-144 -36,-38 -85,-63 -140,-67 -366,-26 -639,-119 -821,-270 -192,-159 -292,-383 -292,-675 0,-293 100,-519 294,-682 184,-154 459,-252 829,-285 53,-7 100,-32 133,-70 33,-37 54,-87 54,-141l0 -225c0,-44 -18,-83 -47,-112 -29,-29 -68,-47 -112,-47z"/>
  <path id="Rectangle-19" class="fil0 str0" d="M7747 24130l-6107 0c-263,0 -501,107 -673,279 -172,172 -279,410 -279,673 0,264 107,502 279,674 172,172 410,279 673,279 2882,0 4930,5 6147,16l0 0c-213,-57 -457,-138 -631,-317 -139,-143 -237,-346 -237,-652 0,-308 100,-512 241,-655 162,-163 385,-243 587,-297z"/>
  <path id="Rectangle-18" class="fil3" d="M1533 25321l5348 0c58,0 104,47 104,105 0,59 -46,106 -104,106l-5348 0c-58,0 -104,-47 -104,-106 0,-58 46,-105 104,-105z"/>
  <path id="Rectangle-18_29" class="fil3" d="M1533 24633l5348 0c58,0 104,47 104,106 0,58 -46,105 -104,105l-5348 0c-58,0 -104,-47 -104,-105 0,-59 46,-106 104,-106z"/>
  <path id="Shape" class="fil3" d="M6619 18239c-130,-115 -260,-231 -390,-346 -207,-184 -413,-368 -620,-552 -47,-42 -95,-84 -142,-126 0,55 0,111 0,167 130,-116 260,-231 390,-347 207,-183 413,-368 620,-551 47,-42 95,-85 142,-127 46,-41 45,-125 0,-166 -50,-46 -118,-44 -168,0 -130,115 -260,231 -390,346 -207,184 -413,368 -620,552 -47,42 -95,84 -142,126 -45,41 -45,126 0,167 130,115 260,231 390,346 207,184 413,368 620,552 48,42 95,84 142,126 46,41 123,49 168,0 41,-45 49,-123 0,-167l0 0z"/>
  <path id="Shape_30" class="fil3" d="M8596 16358c130,115 260,231 389,346 207,184 414,368 621,552 47,42 95,84 141,126 0,-55 0,-111 0,-167 -129,116 -259,231 -389,347 -207,183 -413,368 -620,551 -48,42 -95,85 -142,127 -46,41 -46,125 0,166 49,46 118,44 168,0 130,-115 259,-231 389,-346 207,-184 414,-368 620,-552 48,-42 95,-84 142,-126 46,-41 46,-126 0,-167 -130,-115 -260,-231 -389,-346 -207,-184 -414,-368 -621,-552 -47,-42 -94,-84 -141,-126 -47,-41 -123,-49 -168,0 -42,45 -49,123 0,167l0 0z"/>
  <path id="Shape_31" class="fil3" d="M7184 18933c36,-106 71,-212 107,-319 84,-255 169,-509 254,-764 102,-308 204,-615 306,-922 89,-266 177,-531 265,-797 43,-129 90,-257 129,-388 1,-2 1,-4 2,-5 20,-59 -23,-132 -83,-145 -65,-15 -125,19 -146,82 -36,106 -70,212 -106,319 -85,255 -170,509 -254,764 -102,308 -204,615 -307,922 -88,266 -177,531 -265,797 -42,128 -90,257 -129,388 0,1 -1,3 -1,5 -20,58 22,131 83,145 65,14 125,-20 145,-82l0 0z"/>
 </g>
</svg>
